# xmcd
#
# Track frame offsets:
#	150
#	22435
#	43525
#	63478
#	85135
#	105728
#	125875
#	144350
#
# Disc length: 2204 seconds
#
# Revision: 4
# Processed by: cddbd v1.5.2PL0 Copyright (c) Steve Scherf et al.
# Submitted via: EasyCDDAExtractor 15.3.0.1
#
DISCID=73089a08
DTITLE=Victor Manuelle - Justo A Tiempo...
DYEAR=1993
DGENRE=Latin
TTITLE0=No Vendra, Si Vendra
TTITLE1=Que Importa
TTITLE2=Me Dara El Consentimiento
TTITLE3=Loco Por Ti
TTITLE4=Llegaste
TTITLE5=No Te Deje De Amar
TTITLE6=Asi Cualquiera
TTITLE7=Estas Tocando Fuego
EXTD=YEAR: 1993 ID3G: 123
EXTT0=
EXTT1=
EXTT2=
EXTT3=
EXTT4=
EXTT5=
EXTT6=
EXTT7=
PLAYORDER=
